<svg xmlns="http://www.w3.org/2000/svg" viewBox="0 0 810 809.999993" width="1080" height="1080" preserveAspectRatio="xMidYMid meet" zoomAndPan="magnify" xmlns:xlink="http://www.w3.org/1999/xlink" version="1.0">
 <defs>
  <clipPath id="bdbbaa6aec">
   <path clip-rule="nonzero" d="M 196 70 L 614 70 L 614 745.324219 L 196 745.324219 Z M 196 70 "/>
  </clipPath>
 </defs>
 <g clip-path="url(#bdbbaa6aec)">
  <path fill-rule="evenodd" d="M 405.714844 745.675781 C 390.25 669.757812 362.980469 606.578125 329.953125 548.023438 C 305.457031 504.589844 277.078125 464.5 250.820312 422.382812 C 242.054688 408.320312 234.492188 393.46875 226.066406 378.875 C 209.226562 349.699219 195.570312 315.867188 196.4375 271.988281 C 197.285156 229.113281 209.6875 194.722656 227.566406 166.601562 C 256.976562 120.347656 306.238281 82.425781 372.335938 72.460938 C 426.378906 64.3125 477.050781 78.078125 512.976562 99.089844 C 542.339844 116.261719 565.082031 139.195312 582.363281 166.222656 C 600.402344 194.4375 612.824219 227.765625 613.867188 271.238281 C 614.402344 293.511719 610.753906 314.136719 605.617188 331.246094 C 600.417969 348.5625 592.054688 363.039062 584.617188 378.5 C 570.089844 408.683594 551.882812 436.339844 533.609375 464.011719 C 479.175781 546.433594 428.085938 630.492188 405.714844 745.675781 Z M 405.714844 745.675781 " fill="#193167" fill-opacity="1"/>
 </g>
 <path fill-rule="nonzero" d="M 478.296875 271.511719 C 478.296875 272.710938 478.265625 273.90625 478.207031 275.101562 C 478.148438 276.296875 478.0625 277.492188 477.945312 278.683594 C 477.828125 279.875 477.679688 281.0625 477.503906 282.246094 C 477.328125 283.429688 477.125 284.609375 476.890625 285.78125 C 476.65625 286.957031 476.394531 288.125 476.105469 289.285156 C 475.8125 290.445312 475.496094 291.597656 475.148438 292.746094 C 474.800781 293.890625 474.425781 295.027344 474.019531 296.152344 C 473.617188 297.28125 473.1875 298.394531 472.730469 299.503906 C 472.269531 300.609375 471.785156 301.703125 471.273438 302.785156 C 470.761719 303.867188 470.226562 304.933594 469.660156 305.992188 C 469.097656 307.046875 468.507812 308.085938 467.890625 309.113281 C 467.277344 310.140625 466.636719 311.152344 465.972656 312.148438 C 465.304688 313.140625 464.617188 314.121094 463.902344 315.082031 C 463.191406 316.042969 462.453125 316.988281 461.695312 317.910156 C 460.9375 318.835938 460.15625 319.742188 459.351562 320.628906 C 458.546875 321.515625 457.722656 322.382812 456.875 323.230469 C 456.027344 324.078125 455.164062 324.902344 454.273438 325.707031 C 453.386719 326.507812 452.480469 327.289062 451.558594 328.050781 C 450.632812 328.808594 449.6875 329.546875 448.726562 330.257812 C 447.765625 330.972656 446.789062 331.660156 445.792969 332.324219 C 444.796875 332.992188 443.785156 333.628906 442.757812 334.246094 C 441.734375 334.863281 440.691406 335.453125 439.636719 336.015625 C 438.582031 336.578125 437.511719 337.117188 436.429688 337.628906 C 435.347656 338.140625 434.253906 338.625 433.148438 339.085938 C 432.042969 339.542969 430.925781 339.972656 429.796875 340.375 C 428.671875 340.78125 427.535156 341.15625 426.390625 341.503906 C 425.246094 341.847656 424.089844 342.167969 422.929688 342.460938 C 421.769531 342.75 420.601562 343.011719 419.425781 343.246094 C 418.253906 343.480469 417.074219 343.683594 415.890625 343.859375 C 414.707031 344.035156 413.519531 344.183594 412.328125 344.300781 C 411.136719 344.417969 409.941406 344.503906 408.746094 344.5625 C 407.550781 344.621094 406.355469 344.652344 405.160156 344.652344 C 403.960938 344.652344 402.765625 344.621094 401.570312 344.5625 C 400.375 344.503906 399.179688 344.417969 397.988281 344.300781 C 396.800781 344.183594 395.613281 344.035156 394.425781 343.859375 C 393.242188 343.683594 392.0625 343.480469 390.890625 343.246094 C 389.714844 343.011719 388.550781 342.75 387.386719 342.460938 C 386.226562 342.167969 385.074219 341.851562 383.929688 341.503906 C 382.78125 341.15625 381.648438 340.78125 380.519531 340.375 C 379.390625 339.972656 378.277344 339.542969 377.171875 339.085938 C 376.0625 338.625 374.96875 338.140625 373.886719 337.628906 C 372.804688 337.117188 371.738281 336.578125 370.683594 336.015625 C 369.625 335.453125 368.585938 334.863281 367.558594 334.246094 C 366.53125 333.628906 365.519531 332.992188 364.527344 332.324219 C 363.53125 331.660156 362.550781 330.972656 361.589844 330.257812 C 360.628906 329.546875 359.6875 328.808594 358.761719 328.050781 C 357.835938 327.289062 356.929688 326.507812 356.042969 325.707031 C 355.15625 324.902344 354.289062 324.078125 353.441406 323.230469 C 352.597656 322.382812 351.769531 321.515625 350.96875 320.628906 C 350.164062 319.742188 349.382812 318.835938 348.621094 317.910156 C 347.863281 316.988281 347.128906 316.042969 346.414062 315.082031 C 345.699219 314.121094 345.011719 313.140625 344.347656 312.148438 C 343.683594 311.152344 343.042969 310.140625 342.425781 309.113281 C 341.8125 308.085938 341.222656 307.046875 340.65625 305.992188 C 340.09375 304.933594 339.554688 303.867188 339.042969 302.785156 C 338.53125 301.703125 338.046875 300.609375 337.589844 299.503906 C 337.128906 298.394531 336.699219 297.28125 336.296875 296.152344 C 335.894531 295.027344 335.519531 293.890625 335.171875 292.746094 C 334.824219 291.597656 334.503906 290.445312 334.214844 289.285156 C 333.921875 288.125 333.660156 286.957031 333.425781 285.78125 C 333.191406 284.609375 332.988281 283.429688 332.8125 282.246094 C 332.636719 281.0625 332.492188 279.875 332.375 278.683594 C 332.257812 277.492188 332.167969 276.296875 332.109375 275.101562 C 332.050781 273.90625 332.019531 272.710938 332.019531 271.511719 C 332.019531 270.316406 332.050781 269.121094 332.109375 267.925781 C 332.167969 266.730469 332.257812 265.535156 332.375 264.34375 C 332.492188 263.152344 332.636719 261.964844 332.8125 260.78125 C 332.988281 259.597656 333.191406 258.417969 333.425781 257.246094 C 333.660156 256.070312 333.921875 254.902344 334.214844 253.742188 C 334.503906 252.582031 334.824219 251.429688 335.171875 250.28125 C 335.519531 249.136719 335.894531 248 336.296875 246.875 C 336.699219 245.746094 337.128906 244.628906 337.589844 243.523438 C 338.046875 242.417969 338.53125 241.324219 339.042969 240.242188 C 339.554688 239.160156 340.09375 238.09375 340.65625 237.035156 C 341.222656 235.980469 341.8125 234.941406 342.425781 233.914062 C 343.042969 232.886719 343.683594 231.875 344.347656 230.878906 C 345.011719 229.886719 345.699219 228.90625 346.414062 227.945312 C 347.128906 226.984375 347.863281 226.039062 348.621094 225.117188 C 349.382812 224.191406 350.164062 223.285156 350.96875 222.398438 C 351.769531 221.511719 352.597656 220.644531 353.441406 219.796875 C 354.289062 218.949219 355.15625 218.125 356.042969 217.320312 C 356.929688 216.519531 357.835938 215.738281 358.761719 214.976562 C 359.6875 214.21875 360.628906 213.480469 361.589844 212.769531 C 362.550781 212.054688 363.53125 211.367188 364.527344 210.703125 C 365.519531 210.035156 366.53125 209.398438 367.558594 208.78125 C 368.585938 208.164062 369.625 207.574219 370.683594 207.011719 C 371.738281 206.449219 372.804688 205.910156 373.886719 205.398438 C 374.96875 204.886719 376.0625 204.402344 377.171875 203.941406 C 378.277344 203.484375 379.390625 203.054688 380.519531 202.652344 C 381.648438 202.246094 382.78125 201.871094 383.929688 201.523438 C 385.074219 201.175781 386.226562 200.859375 387.386719 200.566406 C 388.550781 200.277344 389.714844 200.015625 390.890625 199.78125 C 392.0625 199.546875 393.242188 199.34375 394.425781 199.167969 C 395.613281 198.992188 396.800781 198.84375 397.988281 198.726562 C 399.179688 198.609375 400.375 198.523438 401.570312 198.464844 C 402.765625 198.40625 403.960938 198.375 405.160156 198.375 C 406.355469 198.375 407.550781 198.40625 408.746094 198.464844 C 409.941406 198.523438 411.136719 198.609375 412.328125 198.726562 C 413.519531 198.84375 414.707031 198.992188 415.890625 199.167969 C 417.074219 199.34375 418.253906 199.546875 419.425781 199.78125 C 420.601562 200.015625 421.769531 200.277344 422.929688 200.566406 C 424.089844 200.859375 425.246094 201.175781 426.390625 201.523438 C 427.535156 201.871094 428.671875 202.246094 429.796875 202.652344 C 430.925781 203.054688 432.042969 203.484375 433.148438 203.941406 C 434.253906 204.402344 435.347656 204.886719 436.429688 205.398438 C 437.511719 205.910156 438.582031 206.449219 439.636719 207.011719 C 440.691406 207.574219 441.734375 208.164062 442.757812 208.78125 C 443.785156 209.398438 444.796875 210.035156 445.792969 210.703125 C 446.789062 211.367188 447.765625 212.054688 448.726562 212.769531 C 449.6875 213.480469 450.632812 214.21875 451.558594 214.976562 C 452.480469 215.738281 453.386719 216.519531 454.273438 217.320312 C 455.164062 218.125 456.027344 218.949219 456.875 219.796875 C 457.722656 220.644531 458.546875 221.511719 459.351562 222.398438 C 460.15625 223.285156 460.9375 224.191406 461.695312 225.117188 C 462.453125 226.039062 463.191406 226.984375 463.902344 227.945312 C 464.617188 228.90625 465.304688 229.886719 465.972656 230.878906 C 466.636719 231.875 467.277344 232.886719 467.890625 233.914062 C 468.507812 234.941406 469.097656 235.980469 469.660156 237.035156 C 470.226562 238.09375 470.761719 239.160156 471.273438 240.242188 C 471.785156 241.324219 472.269531 242.417969 472.730469 243.523438 C 473.1875 244.628906 473.617188 245.746094 474.019531 246.875 C 474.425781 248 474.800781 249.136719 475.148438 250.28125 C 475.496094 251.429688 475.8125 252.582031 476.105469 253.742188 C 476.394531 254.902344 476.65625 256.070312 476.890625 257.246094 C 477.125 258.417969 477.328125 259.597656 477.503906 260.78125 C 477.679688 261.964844 477.828125 263.152344 477.945312 264.34375 C 478.0625 265.535156 478.148438 266.730469 478.207031 267.925781 C 478.265625 269.121094 478.296875 270.316406 478.296875 271.511719 Z M 478.296875 271.511719 " fill="#ffffff" fill-opacity="1"/>
</svg>
